<svg xmlns="http://www.w3.org/2000/svg" width="16px" height="16px" viewBox="14 9 80 87"><g fill-rule="evenodd"><path d="M51.667 8.946c-1.851.104-4.3.416-6.25.796-1.1.215-2.284.44-2.63.499-6.24 1.078-17.191 7.862-21.537 13.342a44.54 44.54 0 0 1-1.426 1.69c-9.215 10.31-12.014 28.85-6.469 42.86 3.272 8.267 9.166 15.573 16.395 20.324L32 89.936c1.142.751 6.122 2.928 8.538 3.731 13.197 4.389 28.665 1.801 39.527-6.614a99.794 99.794 0 0 1 1.924-1.458c1.219-.885 5.45-5.354 6.643-7.015 2.407-3.353 5.373-8.623 5.892-10.47.107-.381.476-1.556.819-2.61 2.402-7.374 2.711-16.158.828-23.474-1.489-5.782-2.99-9.199-6.03-13.732-.352-.526-.641-1-.641-1.053 0-.091-.81-1.227-1.004-1.408a86.947 86.947 0 0 1-1.363-1.596C82 18.14 74.798 13.342 66.917 10.769c-2.146-.701-6.916-1.532-10.103-1.761-2.3-.164-3.132-.174-5.147-.062m5.416 3.724c6.85.633 12.954 2.712 18.325 6.244 1.188.781 2.205 1.419 2.261 1.419.13 0 2.065 1.733 4.325 3.874 7.891 7.473 12.629 20.009 11.686 30.921-.446 5.161-1.25 8.131-3.922 14.496-.838 1.996-3.031 5.392-5.182 8.025-.784.959-2.963 3.351-3.057 3.355-.098.004-.74.552-2.019 1.723-7.705 7.056-20.863 10.679-32 8.811-1.238-.207-2.513-.42-2.833-.472-6.669-1.09-16.055-7.012-21.502-13.566-.571-.687-1.09-1.288-1.152-1.333-.62-.456-4.047-6.473-4.858-8.529a38.79 38.79 0 0 0-.647-1.541c-.323-.716-.407-1.001-1.081-3.68-3.868-15.377 1.453-31.558 13.5-41.048.727-.574 1.414-1.116 1.524-1.206.111-.09.271-.163.355-.163.084 0 .248-.115.365-.255.116-.141.88-.668 1.696-1.173 7.249-4.485 16.131-6.649 24.216-5.902m-6.166 21.322a121.753 121.753 0 0 1-6.5 1.877c-2.295.585-7.102 2.016-12.75 3.796-1.421.448-2.913.9-3.316 1.004-4.281 1.11-5.716 3.779-2.625 4.883 1.154.412 3.853 1.473 3.923 1.542.036.036-.09.498-.279 1.027a46.185 46.185 0 0 0-.688 2.14c-.216.739-.506 1.328-.779 1.583-1.278 1.194-1.157 3.697.215 4.466.276.154.254.323-.354 2.636C26.649 63.191 26 66.554 26 68.089v.75l4.292-.045 4.291-.044-.05-.948c-.047-.885-.716-4.365-1.798-9.345l-.462-2.126.427-.457c1.175-1.26 1.088-2.848-.216-3.945l-.528-.444.814-1.574c.447-.865.884-1.575.97-1.576.085-.001 1.735.482 3.666 1.072 1.931.591 3.736 1.123 4.011 1.183.739.162 3.921 1.139 7.416 2.279 4.584 1.495 5 1.497 9.667.047a495.378 495.378 0 0 1 5.583-1.701c7.236-2.125 12.772-3.893 17.084-5.457 4.025-1.459 3.038-3.775-2.2-5.158-.486-.128-3.059-.885-5.717-1.681-7.714-2.311-7.904-2.367-9.917-2.892-3.532-.923-5.571-1.49-7.228-2.01-2.107-.662-3.177-.667-5.188-.025m-13 17.216c-.092.264-1.038 8.176-1.07 8.954-.014.318-.135 1.363-.269 2.321-.367 2.614-.448 2.383 1.214 3.458 10.854 7.022 21.015 7.13 32.125.344 2.411-1.473 2.263-.889 1.599-6.295-.275-2.24-.628-5.18-.785-6.532-.173-1.505-.354-2.455-.466-2.451-.1.004-.444.106-.765.226-15.86 5.932-16.747 5.93-30.966-.071-.49-.207-.53-.204-.617.046" fill="#048c7f"/></g></svg>